<svg width="202" height="700" viewBox="0 0 202 700" fill="none" xmlns="http://www.w3.org/2000/svg">
<rect width="202" height="700" fill="#1E1E1E"/>
<g id="00 / CEOMENTALITY &#226;&#128;&#148; &#208;&#191;&#209;&#128;&#208;&#181;&#208;&#183;&#208;&#181;&#208;&#189;&#209;&#130;&#208;&#176;&#209;&#134;&#208;&#184;&#209;&#143;">
<path d="M-1413 -158C-1413 -159.105 -1412.1 -160 -1411 -160H1119C1120.1 -160 1121 -159.105 1121 -158V9483C1121 9484.1 1120.1 9485 1119 9485H-1411C-1412.1 9485 -1413 9484.1 -1413 9483V-158Z" fill="#E8EDF0"/>
<path d="M-1411 -160V-159H1119V-160V-161H-1411V-160ZM1121 -158H1120V9483H1121H1122V-158H1121ZM1119 9485V9484H-1411V9485V9486H1119V9485ZM-1413 9483H-1412V-158H-1413H-1414V9483H-1413ZM-1411 9485V9484C-1411.55 9484 -1412 9483.55 -1412 9483H-1413H-1414C-1414 9484.66 -1412.66 9486 -1411 9486V9485ZM1121 9483H1120C1120 9483.55 1119.55 9484 1119 9484V9485V9486C1120.66 9486 1122 9484.66 1122 9483H1121ZM1119 -160V-159C1119.55 -159 1120 -158.552 1120 -158H1121H1122C1122 -159.657 1120.66 -161 1119 -161V-160ZM-1411 -160V-161C-1412.66 -161 -1414 -159.657 -1414 -158H-1413H-1412C-1412 -158.552 -1411.55 -159 -1411 -159V-160Z" fill="white" fill-opacity="0.1"/>
<g id="Desktop / &#208;&#155;&#208;&#181;&#208;&#189;&#208;&#180;&#208;&#184;&#208;&#189;&#208;&#179;">
<rect width="1440" height="8470" transform="translate(-853)" fill="white"/>
<g id="001 / HERO &#226;&#128;&#148; access gate" clip-path="url(#clip0_0_1)">
<rect width="1440" height="700" transform="translate(-853)" fill="white"/>
<g id="GFX / barcode" clip-path="url(#clip1_0_1)">
<rect width="202" height="702" transform="translate(0 -2)" fill="white"/>
<rect id="bar" x="5.05078" y="-2" width="1.89375" height="702" fill="#171717"/>
<rect id="bar_2" x="10.0996" y="-2" width="4.41875" height="702" fill="#171717"/>
<rect id="bar_3" x="16.4121" y="-2" width="1.2625" height="702" fill="#171717"/>
<rect id="bar_4" x="19.5684" y="-2" width="2.525" height="702" fill="#171717"/>
<rect id="bar_5" x="25.25" y="-2" width="5.68125" height="702" fill="#171717"/>
<rect id="bar_6" x="32.8242" y="-2" width="1.89375" height="702" fill="#171717"/>
<rect id="bar_7" x="36.6133" y="-2" width="1.2625" height="702" fill="#171717"/>
<rect id="bar_8" x="41.0312" y="-2" width="3.7875" height="702" fill="#171717"/>
<rect id="bar_9" x="46.7129" y="-2" width="2.525" height="702" fill="#171717"/>
<rect id="bar_10" x="51.1309" y="-2" width="6.3125" height="702" fill="#171717"/>
<rect id="bar_11" x="60.5996" y="-2" width="1.2625" height="702" fill="#171717"/>
<rect id="bar_12" x="63.7559" y="-2" width="3.15625" height="702" fill="#171717"/>
<rect id="bar_13" x="68.8066" y="-2" width="1.89375" height="702" fill="#171717"/>
<rect id="bar_14" x="73.8555" y="-2" width="5.05" height="704" fill="#171717"/>
<rect id="bar_15" x="80.8008" y="-2" width="1.2625" height="704" fill="#171717"/>
<rect id="bar_16" x="83.957" y="-2" width="2.525" height="704" fill="#171717"/>
<rect id="bar_17" x="89.6367" y="-2" width="4.41875" height="704" fill="#171717"/>
<rect id="bar_18" x="95.9492" y="-2" width="1.89375" height="704" fill="#171717"/>
<rect id="bar_19" x="99.7383" y="-2" width="6.94375" height="704" fill="#171717"/>
<rect id="bar_20" x="109.838" y="-2" width="1.2625" height="704" fill="#171717"/>
<rect id="bar_21" x="112.994" y="-2" width="3.15625" height="704" fill="#171717"/>
<rect id="bar_22" x="118.043" y="-2" width="1.89375" height="704" fill="#171717"/>
<rect id="bar_23" x="123.094" y="-2" width="3.7875" height="704" fill="#171717"/>
<rect id="bar_24" x="128.775" y="-2" width="1.2625" height="704" fill="#171717"/>
<rect id="bar_25" x="131.932" y="-2" width="5.05" height="704" fill="#171717"/>
<rect id="bar_26" x="140.137" y="-2" width="1.89375" height="704" fill="#171717"/>
<rect id="bar_27" x="143.926" y="-2" width="2.525" height="704" fill="#171717"/>
<rect id="bar_28" x="148.344" y="-2" width="6.3125" height="704" fill="#171717"/>
<rect id="bar_29" x="157.812" y="-2" width="1.2625" height="704" fill="#171717"/>
<rect id="bar_30" x="160.969" y="-2" width="3.7875" height="704" fill="#171717"/>
<rect id="bar_31" x="166.65" y="-2" width="1.89375" height="704" fill="#171717"/>
<rect id="bar_32" x="172" y="-2" width="5" height="702" fill="#171717"/>
<rect id="bar_33" x="179" y="-2" width="1" height="702" fill="#171717"/>
<rect id="bar_34" x="182" y="-2" width="2" height="702" fill="#171717"/>
<rect id="bar_35" x="197" y="-1" width="3" height="701" fill="#171717"/>
<rect id="bar_36" x="187" y="-2" width="5" height="702" fill="#171717"/>
<rect id="bar_37" x="194" y="-2" width="1" height="702" fill="#171717"/>
</g>
</g>
</g>
</g>
<defs>
<clipPath id="clip0_0_1">
<rect width="1440" height="700" fill="white" transform="translate(-853)"/>
</clipPath>
<clipPath id="clip1_0_1">
<rect width="202" height="702" fill="white" transform="translate(0 -2)"/>
</clipPath>
</defs>
</svg>
