<svg width="33" height="44" viewBox="0 0 33 44" fill="none" xmlns="http://www.w3.org/2000/svg">
<rect width="33" height="44" fill="#1E1E1E"/>
<g id="00 / CEOMENTALITY &#226;&#128;&#148; &#208;&#191;&#209;&#128;&#208;&#181;&#208;&#183;&#208;&#181;&#208;&#189;&#209;&#130;&#208;&#176;&#209;&#134;&#208;&#184;&#209;&#143;">
<path d="M-2413 -3853C-2413 -3854.1 -2412.1 -3855 -2411 -3855H119C120.104 -3855 121 -3854.1 121 -3853V5788C121 5789.1 120.104 5790 119 5790H-2411C-2412.1 5790 -2413 5789.1 -2413 5788V-3853Z" fill="#E8EDF0"/>
<path d="M-2411 -3855V-3854H119V-3855V-3856H-2411V-3855ZM121 -3853H120V5788H121H122V-3853H121ZM119 5790V5789H-2411V5790V5791H119V5790ZM-2413 5788H-2412V-3853H-2413H-2414V5788H-2413ZM-2411 5790V5789C-2411.55 5789 -2412 5788.55 -2412 5788H-2413H-2414C-2414 5789.66 -2412.66 5791 -2411 5791V5790ZM121 5788H120C120 5788.55 119.552 5789 119 5789V5790V5791C120.657 5791 122 5789.66 122 5788H121ZM119 -3855V-3854C119.552 -3854 120 -3853.55 120 -3853H121H122C122 -3854.66 120.657 -3856 119 -3856V-3855ZM-2411 -3855V-3856C-2412.66 -3856 -2414 -3854.66 -2414 -3853H-2413H-2412C-2412 -3853.55 -2411.55 -3854 -2411 -3854V-3855Z" fill="white" fill-opacity="0.1"/>
<g id="Mobile / &#208;&#155;&#208;&#181;&#208;&#189;&#208;&#180;&#208;&#184;&#208;&#189;&#208;&#179;">
<rect width="390" height="9405" transform="translate(-333 -3695)" fill="white"/>
<g id="004 / Mobile selection &#226;&#128;&#148; &#209;&#129;&#209;&#130;&#209;&#131;&#208;&#191;&#208;&#181;&#208;&#189;&#209;&#135;&#208;&#176;&#209;&#130;&#209;&#139;&#208;&#185; &#208;&#188;&#208;&#176;&#209;&#128;&#209;&#136;&#209;&#128;&#209;&#131;&#209;&#130;">
<rect width="390" height="1104" transform="translate(-333 -501)" fill="white"/>
<g id="Route / 01 to 02">
<path id="Vector" d="M1 1H22V40M32 30L22 40L12 30" stroke="#0060FF" stroke-width="1.2"/>
</g>
</g>
</g>
</g>
</svg>
